<svg height="512" viewBox="0 0 60 60" width="512" xmlns="http://www.w3.org/2000/svg"><g id="Page-1" fill="none" fill-rule="evenodd"><g id="001---Cloud-Message" fill="rgb(0,0,0)" fill-rule="nonzero"><path id="Shape" d="m41.59 7.49c-1.8996293-2.21500206-4.6719826-3.48977318-7.59-3.49-.5522847 0-1 .44771525-1 1s.4477153 1 1 1c2.3350005.00276653 4.5522502 1.02555059 6.07 2.8.1900027.22213775.4676882.35001923.76.35.2396226-.00275895.470287-.09147603.65-.25.2015762-.17238328.3264119-.4177863.3470412-.68221664.0206293-.26443035-.0646378-.52622436-.2370412-.72778336z"/><path id="Shape" d="m48 14c-.0137806-6.75848529-4.8538456-12.54228148-11.5040745-13.74717535s-13.2118426 2.51313692-15.5959255 8.83717535c-3.1853678.34613608-6.0079851 2.2080208-7.58 5-.4379481-.0548953-.8786538-.0849434-1.32-.09-6.627417 0-12 5.372583-12 12s5.372583 12 12 12v8c0 4.9705627 4.0294373 9 9 9h8.5c.7347965-.0065999 1.4464606.2567158 2 .74l4.3 3.76.13.09c.4206055.269828.9102888.4122182 1.41.41 1.4645432-.0108892 2.6491108-1.1954568 2.66-2.66v-1.82c.0125927-.345905.2761075-.630671.62-.67 4.2736375-.7820277 7.378552-4.5054007 7.38-8.85v-8c6.627417 0 12-5.372583 12-12s-5.372583-12-12-12zm-2 32c.0020935 3.3816464-2.4135866 6.2813042-5.74 6.89-1.2911337.2131515-2.2435493 1.3214936-2.26 2.63v1.82c.0040499.2391347-.1276589.4599406-.34.57-.1928725.1067857-.4271275.1067857-.62 0l-4.26-3.7c-.9121107-.7848829-2.076685-1.2144972-3.28-1.21h-8.5c-3.8659932 0-7-3.1340068-7-7v-14c0-3.8659932 3.1340068-7 7-7h18c3.8659932 0 7 3.1340068 7 7zm2-10v-4c0-4.9705627-4.0294373-9-9-9h-18c-4.9705627 0-9 4.0294373-9 9v4c-5.5228475 0-10-4.4771525-10-10s4.4771525-10 10-10c1.9730774-.0063323 3.9027673.5788444 5.54 1.68.3001031.2000687.6841452.2248368 1.0074614.0649743.3233161-.1598626.5367869-.4800688.56-.8400001.023213-.3599312-.1473583-.7049055-.4474614-.9049742-1.0022971-.6732402-2.1016771-1.1892069-3.26-1.53 1.4344209-2.0914501 3.7755523-3.3788869 6.31-3.47h.22c1.7585477-.0393375 3.4774315.5253882 4.87 1.6.4418278.3313708 1.0686291.2418278 1.4-.2.3313708-.4418278.2418278-1.0686291-.2-1.4-1.4368206-1.08209346-3.1410594-1.75272698-4.93-1.94 2.3315558-5.14486251 7.9354541-7.96718928 13.457282-6.77757612s9.466469 6.06906094 9.472718 11.71757612v.17c-1.6662638.2699658-3.2552963.893985-4.66 1.83-.4583963.3092795-.5792795.9316037-.27 1.39s.9316037.5792795 1.39.27c1.6394914-1.0940872 3.5690082-1.6722457 5.54-1.66 5.5228475 0 10 4.4771525 10 10s-4.4771525 10-10 10z"/><path id="Shape" d="m30 36c-1.6568542 0-3 1.3431458-3 3s1.3431458 3 3 3 3-1.3431458 3-3-1.3431458-3-3-3zm0 4c-.5522847 0-1-.4477153-1-1s.4477153-1 1-1 1 .4477153 1 1-.4477153 1-1 1z"/><path id="Shape" d="m21 36c-1.6568542 0-3 1.3431458-3 3s1.3431458 3 3 3 3-1.3431458 3-3-1.3431458-3-3-3zm0 4c-.5522847 0-1-.4477153-1-1s.4477153-1 1-1 1 .4477153 1 1-.4477153 1-1 1z"/><path id="Shape" d="m39 36c-1.6568542 0-3 1.3431458-3 3s1.3431458 3 3 3 3-1.3431458 3-3-1.3431458-3-3-3zm0 4c-.5522847 0-1-.4477153-1-1s.4477153-1 1-1 1 .4477153 1 1-.4477153 1-1 1z"/></g></g></svg>